Coordinates
version=1
nRows=17
nColumns=40
inDegrees=yes

Units are S.I. units (second, meters, Newtons, ...)
If the header above contains a line with 'inDegrees', this indicates whether rotational values are in degrees (yes) or radians (no).

endheader
time	pelvis_tilt	pelvis_list	pelvis_rotation	pelvis_tx	pelvis_ty	pelvis_tz	hip_flexion_r	hip_adduction_r	hip_rotation_r	knee_angle_r	knee_angle_r_beta	ankle_angle_r	subtalar_angle_r	mtp_angle_r	hip_flexion_l	hip_adduction_l	hip_rotation_l	knee_angle_l	knee_angle_l_beta	ankle_angle_l	subtalar_angle_l	mtp_angle_l	lumbar_extension	lumbar_bending	lumbar_rotation	arm_flex_r	arm_add_r	arm_rot_r	elbow_flex_r	pro_sup_r	wrist_flex_r	wrist_dev_r	arm_flex_l	arm_add_l	arm_rot_l	elbow_flex_l	pro_sup_l	wrist_flex_l	wrist_dev_l
      0.72800000	     14.96554239	     -3.39842178	     -4.53028483	      0.93578173	      0.93138033	     -0.34498669	    -29.68107673	      2.16051553	     -0.57152713	     27.68813628	      0.48324914	    -11.15175034	      0.00000000	      0.00000000	     16.97987225	     -2.05557151	     -1.12771764	     23.43578930	      0.40903169	    -17.87894534	      0.00000000	      0.00000000	    -29.13468815	      1.05458240	      4.69244171	      8.37531352	    -17.79745989	     10.38882890	     47.39523928	     73.38712989	      0.00000000	      0.00000000	      2.42967097	    -19.03690759	     17.19041779	     44.61313005	     77.04731837	      0.00000000	      0.00000000
      0.73200000	     15.04908330	     -3.17433456	     -4.41131210	      0.94223078	      0.93158707	     -0.34557291	    -29.67219238	      1.93042564	     -0.46698965	     28.27722324	      0.49353065	    -12.23324738	      0.00000000	      0.00000000	     16.92280809	     -1.66759133	     -0.68947326	     24.16731300	      0.42179918	    -18.00113769	      0.00000000	      0.00000000	    -29.12311854	      0.84695585	      4.41055572	      8.20892693	    -17.63879956	     10.24524581	     47.09732652	     73.39999047	      0.00000000	      0.00000000	      2.40453966	    -19.04467204	     17.19598112	     44.45617987	     76.92176724	      0.00000000	      0.00000000
      0.73600000	     14.98371350	     -2.81039451	     -3.75765300	      0.94969167	      0.93151234	     -0.34611439	    -29.66953211	      1.80675775	     -1.31638515	     28.58195095	      0.49884915	    -13.89385357	      0.00000000	      0.00000000	     17.07109007	     -1.05008800	      0.04530864	     25.01596477	      0.43661095	    -17.82731294	      0.00000000	      0.00000000	    -28.80897055	      0.68572482	      3.59424107	      7.82807870	    -17.21304655	      9.86326409	     46.68100396	     73.46129795	      0.00000000	      0.00000000	      2.19728561	    -19.27792364	     17.27342045	     44.37503746	     76.73237679	      0.00000000	      0.00000000
      0.74000000	     15.10552962	     -2.52748124	     -3.54918374	      0.95640377	      0.93188923	     -0.34681946	    -29.66541081	      1.48559748	     -1.66941633	     29.18095804	      0.50930380	    -15.27103435	      0.00000000	      0.00000000	     16.92364089	     -0.58992909	      0.42120329	     25.70146538	      0.44857519	    -17.70326017	      0.00000000	      0.00000000	    -28.82560903	      0.45900921	      3.20578955	      7.60615511	    -17.01461172	      9.63843515	     46.36264387	     73.55414996	      0.00000000	      0.00000000	      1.95053801	    -19.38019363	     17.14440337	     44.59090842	     76.66467285	      0.00000000	      0.00000000
      0.74400000	     15.18605622	     -2.28895340	     -3.23315729	      0.96305809	      0.93231445	     -0.34719061	    -29.65988639	      1.33489989	     -1.94989073	     29.64183749	      0.51734766	    -16.81902612	      0.00000000	      0.00000000	     16.75139056	     -0.13816470	      1.06027904	     26.26165451	      0.45835234	    -17.45355421	      0.00000000	      0.00000000	    -28.78653673	      0.28449702	      2.71805020	      7.41778801	    -16.74117091	      9.51305342	     45.97094093	     73.75018859	      0.00000000	      0.00000000	      2.02381604	    -19.49719228	     17.40113649	     44.22790432	     76.58985896	      0.00000000	      0.00000000
      0.74800000	     15.34906908	     -2.10342089	     -3.12348338	      0.96940238	      0.93293515	     -0.34776096	    -29.63743631	      1.11873407	     -1.90580868	     30.27169183	      0.52834069	    -18.06265736	      0.00000000	      0.00000000	     16.52879441	      0.20230707	      1.37765582	     26.88206072	      0.46918047	    -17.33546873	      0.00000000	      0.00000000	    -28.89195287	      0.11526276	      2.46538945	      7.23508333	    -16.57433054	      9.35353826	     45.67862229	     73.80147052	      0.00000000	      0.00000000	      2.04752051	    -19.50912285	     17.40866016	     44.03365424	     76.55771057	      0.00000000	      0.00000000
      0.75200000	     15.51494524	     -1.84066798	     -3.03195887	      0.97625058	      0.93362255	     -0.34841311	    -29.62478259	      0.76649614	     -2.07813652	     30.85070242	      0.53844633	    -19.70598129	      0.00000000	      0.00000000	     16.23822482	      0.59318216	      1.46435749	     27.49024875	      0.47979535	    -16.97792267	      0.00000000	      0.00000000	    -28.94017778	     -0.13115941	      2.17233731	      7.01074622	    -16.42737612	      9.18079844	     45.31894634	     73.86336396	      0.00000000	      0.00000000	      2.10671411	    -19.46071417	     17.36953241	     43.63614484	     76.60317760	      0.00000000	      0.00000000
      0.75600000	     15.65555815	     -1.65709780	     -2.84793904	      0.98327157	      0.93429670	     -0.34858674	    -29.61857236	      0.51605406	     -2.62221329	     31.29524590	      0.54620508	    -21.75691304	      0.00000000	      0.00000000	     15.89300844	      0.91596686	      1.74883723	     27.99509822	      0.48860664	    -16.39903835	      0.00000000	      0.00000000	    -28.91815773	     -0.30211045	      1.88543582	      6.68564425	    -16.19203701	      8.99920856	     44.96792055	     73.95693675	      0.00000000	      0.00000000	      2.11790503	    -19.60213360	     17.56253909	     43.33963032	     76.84624853	      0.00000000	      0.00000000
      0.76000000	     15.78484025	     -1.38361213	     -2.56903680	      0.99012861	      0.93492722	     -0.34906053	    -29.61261776	      0.29691491	     -2.88787592	     31.73640828	      0.55390482	    -23.48247229	      0.00000000	      0.00000000	     15.58121354	      1.36216046	      2.07636018	     28.49437377	      0.49732064	    -15.99541991	      0.00000000	      0.00000000	    -28.92132966	     -0.52528456	      1.47039739	      6.36478060	    -15.97202197	      8.77420221	     44.70310640	     74.09022562	      0.00000000	      0.00000000	      2.01396493	    -19.71998148	     17.71935023	     43.40468646	     76.87296298	      0.00000000	      0.00000000
      0.76400000	     15.96811591	     -1.21486818	     -2.33184596	      0.99676596	      0.93568171	     -0.34921521	    -29.58761169	      0.18809999	     -3.02872178	     32.27966687	      0.56338647	    -25.01410961	      0.00000000	      0.00000000	     15.19358261	      1.65941514	      2.36389736	     28.95351567	      0.50533418	    -15.61911112	      0.00000000	      0.00000000	    -28.97185702	     -0.67511366	      1.16389585	      6.12278587	    -15.73822014	      8.61106433	     44.29252496	     74.17357296	      0.00000000	      0.00000000	      1.97828483	    -19.97105571	     18.02825058	     43.37307017	     77.05676705	      0.00000000	      0.00000000
      0.76800000	     16.13413059	     -1.02050514	     -1.85405709	      1.00318678	      0.93644547	     -0.34975516	    -29.57191210	      0.17633219	     -3.32643484	     32.72898552	      0.57122856	    -26.51955511	      0.00000000	      0.00000000	     14.84658694	      2.06326829	      2.92029907	     29.41026100	      0.51330589	    -15.21754689	      0.00000000	      0.00000000	    -29.06415013	     -0.73530297	      0.63134917	      5.86208162	    -15.49276187	      8.22810804	     43.95852326	     74.08517066	      0.00000000	      0.00000000	      2.07532027	    -20.12922441	     18.28258551	     43.22166078	     77.16374062	      0.00000000	      0.00000000
      0.77200000	     16.31090217	     -0.85869196	     -1.62939225	      1.00967047	      0.93724172	     -0.34986043	    -29.54896989	      0.14409065	     -3.06994355	     33.27478889	      0.58075462	    -27.41671234	      0.00000000	      0.00000000	     14.42544011	      2.33822341	      3.15960352	     29.77880106	      0.51973813	    -14.98192166	      0.00000000	      0.00000000	    -29.15579898	     -0.89246304	      0.32192621	      5.58069206	    -15.26991914	      8.20718056	     43.76335355	     74.15947393	      0.00000000	      0.00000000	      2.02283632	    -20.32069116	     18.44445570	     43.28295031	     77.19413856	      0.00000000	      0.00000000
      0.77600000	     16.49855210	     -0.70306036	     -1.38443650	      1.01646779	      0.93805223	     -0.35000197	    -29.51755438	      0.06129807	     -3.18868116	     33.75797057	      0.58918774	    -28.80726400	      0.00000000	      0.00000000	     13.92895165	      2.58607978	      3.33838003	     30.12484310	      0.52577770	    -14.38167023	      0.00000000	      0.00000000	    -29.21126022	     -1.02767814	      0.00671231	      5.29500580	    -15.09022040	      8.11503504	     43.41308461	     74.29455138	      0.00000000	      0.00000000	      1.94418493	    -20.53323945	     18.69723219	     43.40335190	     77.23171328	      0.00000000	      0.00000000
      0.78000000	     16.71459983	     -0.56770584	     -1.19335486	      1.02261038	      0.93895524	     -0.35017938	    -29.47552289	      0.10014353	     -2.79342289	     34.33447000	      0.59924955	    -29.47396163	      0.00000000	      0.00000000	     13.42254077	      2.79700886	      3.44510239	     30.38945354	      0.53039602	    -14.17692271	      0.00000000	      0.00000000	    -29.37552766	     -1.15714434	     -0.29036017	      5.09625128	    -14.89586618	      8.02776660	     43.16393547	     74.30744946	      0.00000000	      0.00000000	      2.00547604	    -20.68175212	     18.82489680	     43.33291974	     77.26284301	      0.00000000	      0.00000000
      0.78400000	     16.94795431	     -0.41729354	     -1.03967232	      1.02907692	      0.93985035	     -0.35036710	    -29.42902590	      0.00603083	     -2.65822902	     34.92271758	      0.60951641	    -30.45913194	      0.00000000	      0.00000000	     12.81388111	      3.03322441	      3.56874024	     30.60528670	      0.53416302	    -13.56768624	      0.00000000	      0.00000000	    -29.50862596	     -1.31002347	     -0.47692122	      4.87077392	    -14.75071920	      7.82458412	     42.71085212	     74.22348287	      0.00000000	      0.00000000	      1.97710400	    -20.90116286	     19.21107033	     43.50032478	     77.30384165	      0.00000000	      0.00000000
      0.78800000	     17.18654918	     -0.28764481	     -0.82138405	      1.03529090	      0.94079594	     -0.35067429	    -29.36893826	     -0.01506200	     -2.58767704	     35.55183234	      0.62049653	    -31.16152246	      0.00000000	      0.00000000	     12.21790762	      3.22988474	      3.64493027	     30.79099592	      0.53740426	    -13.16296630	      0.00000000	      0.00000000	    -29.69713610	     -1.41108370	     -0.75608554	      4.69694563	    -14.62782440	      7.79640967	     42.41121463	     74.19920236	      0.00000000	      0.00000000	      2.09287502	    -21.03598389	     19.52722844	     43.43131767	     77.45455753	      0.00000000	      0.00000000
      0.79200000	     17.43652680	     -0.11283209	     -0.62969632	      1.04153907	      0.94173998	     -0.35118580	    -29.29244617	     -0.12418415	     -2.54536071	     36.24131006	      0.63253019	    -31.72692415	      0.00000000	      0.00000000	     11.56478526	      3.48841611	      3.73646299	     30.92337805	      0.53971476	    -12.69381385	      0.00000000	      0.00000000	    -29.88347529	     -1.55121793	     -0.99226833	      4.44113809	    -14.54271941	      7.72636471	     42.17482289	     74.16502671	      0.00000000	      0.00000000	      2.09005693	    -21.20805499	     19.76025747	     43.60271652	     77.58938201	      0.00000000	      0.00000000
